# xmcd CD database file
#
# Track frame offsets:
#	150
#	14786
#	28395
#	40767
#	55990
#	72754
#	87609
#	90197
#	98877
#	109020
#	116877
#	130254
#
# Disc length: 1905 seconds
#
# Revision: 4
# Processed by: cddbd v1.5.2PL0 Copyright (c) Steve Scherf et al.
# Submitted via: CDex 1.79
#
DISCID=a5076f0c
DTITLE=Chuck Wagon And The Wheels - Off The Top Rope
DYEAR=2000
DGENRE=Country
TTITLE0=Play That Country Music Cowboy
TTITLE1=The Jerry Springer Show
TTITLE2=Cupid
TTITLE3=Country 2010
TTITLE4=That's Love
TTITLE5=A Chuck Wagon Thing
TTITLE6=The Wheels Intro
TTITLE7=Honky Tonk Man
TTITLE8=White Lightnin'
TTITLE9=Wipe Out - (instrumental)
TTITLE10=Beauty's In The Eye Of The Beerholder
TTITLE11=I Fell For You
EXTD=LABEL =Lyric Street Records\nID =HL-65013-2\nUPC =720616-501325\nCOPYRIGHT =2000 YEAR: 2000
EXTT0=
EXTT1=
EXTT2=
EXTT3=
EXTT4=
EXTT5=
EXTT6=
EXTT7=
EXTT8=
EXTT9=
EXTT10=
EXTT11=
PLAYORDER=
